# xmcd CD database file
#
# Track frame offsets:
#	150
#	13264
#	28565
#	48707
#	65440
#	79836
#	96214
#	113539
#	130705
#	145748
#	156366
#	169718
#	187345
#
# Disc length: 2683 seconds
#
# Revision: 0
# Processed by: cddbd v1.5PL3 Copyright (c) Steve Scherf et al.
# Submitted via: Feurio! 1.66.7ß - http://www.feurio.com
#
DISCID=b00a790d
DTITLE=Kathy Mattea - Untold Stories - A Collection Of Hits
DYEAR=1990
DGENRE=
TTITLE0=Train Of Memories
TTITLE1=Eighteen Wheels And A Dozen Roses
TTITLE2=Goin' Gone
TTITLE3=Love At The Five And Dime
TTITLE4=Come From The Heart
TTITLE5=She Came From Fort Worth
TTITLE6=Walk The Way The Wind Blows
TTITLE7=Where've You Been
TTITLE8=Life As We Knew It
TTITLE9=Burnin' Old Memories
TTITLE10=The Battle Hymn Of Love (With Tim O'Brien)
TTITLE11=A Few Good Things Remain
TTITLE12=Untold Stories
EXTD=Arrangement: Produced by Allen Reynolds\r\nKommentar: 1990 Polygram 
EXTD=Records Inc.\r\n
EXTT0=
EXTT1=
EXTT2=
EXTT3=
EXTT4=
EXTT5=
EXTT6=
EXTT7=
EXTT8=
EXTT9=
EXTT10=
EXTT11=
EXTT12=
PLAYORDER=
